.
..............................Site Info...........................

 -   http://www.scenetime.com  *_*    

Scenetime .Always on time . friendly online private torrent community ..

     We care to share . Join us on  http://www.scenetime.com 

    Be the first to get new release at  http://www.scenetime.com

        Seed back for speed


 
http://www.imdb.com/title/tt2400434/


description:

Third installment of the horror movie, Daniel and Alice take their two young children to Alices mothers house after the tragic and mysterious death of her father. Once there, Daniel learns about several unresolved murder and missing people cases.




Source-dvdracso Thanks




file info
Format                                   : AVI
Format/Info                              : Audio Video Interleave
File size                                : 894 MiB
Duration                                 : 1h 29mn
Overall bit rate                         : 1 392 Kbps

Video
ID                                       : 0
Format                                   : MPEG-4 Visual
Format profile                           : Advanced Simple@L5
Format settings, BVOP                    : 1
Format settings, QPel                    : No
Format settings, GMC                     : No warppoints
Format settings, Matrix                  : Default (H.263)
Muxing mode                              : Packed bitstream
Codec ID                                 : XVID
Codec ID/Hint                            : XviD
Duration                                 : 1h 29mn
Bit rate                                 : 1 000 Kbps
Width                                    : 720 pixels
Height                                   : 400 pixels
Display aspect ratio                     : 16:9
Frame rate                               : 23.976 fps
Color space                              : YUV
Chroma subsampling                       : 4:2:0
Bit depth                                : 8 bits
Scan type                                : Progressive
Compression mode                         : Lossy
Bits/(Pixel*Frame)                       : 0.145
Stream size                              : 642 MiB (72%)
Writing library                          : XviD 1.2.1 (UTC 2008-12-04)

Audio
ID                                       : 1
Format                                   : AC-3
Format/Info                              : Audio Coding 3
Mode extension                           : CM (complete main)
Format settings, Endianness              : Big
Codec ID                                 : 2000
Duration                                 : 1h 29mn
Bit rate mode                            : Constant
Bit rate                                 : 384 Kbps
Channel(s)                               : 5 channels
Channel positions                        : Front: L C R, Side: L R
Sampling rate                            : 48.0 KHz
Bit depth                                : 16 bits
Compression mode                         : Lossy
Stream size                              : 247 MiB (28%)
Alignment                                : Aligned on interleaves
Interleave, duration                     : 64 ms (1.53 video frames)
Interleave, preload duration             : 192 ms
Title                                    : VTS 02 1 T80 3_2ch 224Kbps DELAY 0ms_audio











Encoder - BallZac



screenies
[IMG]http://lookpic.com/O/i2/1240/F7KCnygF.png[/IMG]

[IMG]http://lookpic.com/O/i2/345/CNd3rTDf.png[/IMG]



Greetz to CM8 Tragedy BBnRG dopeonarope MrSeeN jiinx UNiQUE and to all those who make this possible ;)
And All the ballwashers out there

[IMG]http://i40.photobucket.com/albums/e243/tragedy42069/NewEra1.png[/IMG]